<!-- Created with qrencode 4.1.1 (https://fukuchi.org/works/qrencode/index.html) -->
<svg width="4.76cm" height="4.76cm" viewBox="0 0 45 45" preserveAspectRatio="none" version="1.1" xmlns="http://www.w3.org/2000/svg">
	<g id="QRcode">
		<rect x="0" y="0" width="45" height="45" fill="#ffffff"/>
		<path style="stroke:#000000" transform="translate(4,4.5)" d="M0,0h1M1,0h1M2,0h1M3,0h1M4,0h1M5,0h1M6,0h1M8,0h1M11,0h1M12,0h1M14,0h1M16,0h1M19,0h1M20,0h1M21,0h1M22,0h1M25,0h1M26,0h1M28,0h1M30,0h1M31,0h1M32,0h1M33,0h1M34,0h1M35,0h1M36,0h1M0,1h1M6,1h1M8,1h1M9,1h1M11,1h1M14,1h1M15,1h1M17,1h1M18,1h1M20,1h1M21,1h1M22,1h1M23,1h1M27,1h1M28,1h1M30,1h1M36,1h1M0,2h1M2,2h1M3,2h1M4,2h1M6,2h1M8,2h1M11,2h1M12,2h1M15,2h1M17,2h1M18,2h1M30,2h1M32,2h1M33,2h1M34,2h1M36,2h1M0,3h1M2,3h1M3,3h1M4,3h1M6,3h1M11,3h1M13,3h1M14,3h1M15,3h1M18,3h1M19,3h1M20,3h1M21,3h1M22,3h1M23,3h1M25,3h1M28,3h1M30,3h1M32,3h1M33,3h1M34,3h1M36,3h1M0,4h1M2,4h1M3,4h1M4,4h1M6,4h1M12,4h1M14,4h1M15,4h1M16,4h1M24,4h1M25,4h1M26,4h1M30,4h1M32,4h1M33,4h1M34,4h1M36,4h1M0,5h1M6,5h1M8,5h1M9,5h1M10,5h1M11,5h1M12,5h1M13,5h1M15,5h1M19,5h1M21,5h1M22,5h1M23,5h1M24,5h1M27,5h1M28,5h1M30,5h1M36,5h1M0,6h1M1,6h1M2,6h1M3,6h1M4,6h1M5,6h1M6,6h1M8,6h1M10,6h1M12,6h1M14,6h1M16,6h1M18,6h1M20,6h1M22,6h1M24,6h1M26,6h1M28,6h1M30,6h1M31,6h1M32,6h1M33,6h1M34,6h1M35,6h1M36,6h1M8,7h1M12,7h1M14,7h1M15,7h1M18,7h1M19,7h1M24,7h1M27,7h1M2,8h1M3,8h1M4,8h1M6,8h1M8,8h1M9,8h1M11,8h1M13,8h1M14,8h1M16,8h1M17,8h1M18,8h1M19,8h1M21,8h1M22,8h1M23,8h1M24,8h1M25,8h1M28,8h1M29,8h1M30,8h1M31,8h1M34,8h1M35,8h1M36,8h1M2,9h1M3,9h1M4,9h1M9,9h1M10,9h1M11,9h1M12,9h1M13,9h1M14,9h1M15,9h1M16,9h1M17,9h1M21,9h1M22,9h1M26,9h1M28,9h1M31,9h1M33,9h1M35,9h1M0,10h1M2,10h1M3,10h1M4,10h1M5,10h1M6,10h1M7,10h1M12,10h1M14,10h1M15,10h1M17,10h1M19,10h1M20,10h1M27,10h1M28,10h1M30,10h1M32,10h1M34,10h1M36,10h1M1,11h1M2,11h1M5,11h1M8,11h1M9,11h1M11,11h1M12,11h1M15,11h1M19,11h1M24,11h1M27,11h1M28,11h1M29,11h1M30,11h1M31,11h1M32,11h1M35,11h1M1,12h1M2,12h1M3,12h1M6,12h1M9,12h1M11,12h1M16,12h1M18,12h1M20,12h1M24,12h1M25,12h1M26,12h1M27,12h1M30,12h1M31,12h1M32,12h1M34,12h1M36,12h1M0,13h1M4,13h1M7,13h1M8,13h1M9,13h1M11,13h1M12,13h1M13,13h1M15,13h1M16,13h1M17,13h1M18,13h1M20,13h1M26,13h1M28,13h1M29,13h1M33,13h1M0,14h1M2,14h1M3,14h1M6,14h1M9,14h1M10,14h1M12,14h1M14,14h1M15,14h1M16,14h1M18,14h1M20,14h1M27,14h1M30,14h1M31,14h1M32,14h1M33,14h1M34,14h1M35,14h1M36,14h1M1,15h1M2,15h1M4,15h1M5,15h1M7,15h1M8,15h1M17,15h1M18,15h1M20,15h1M21,15h1M22,15h1M23,15h1M24,15h1M26,15h1M27,15h1M31,15h1M36,15h1M1,16h1M2,16h1M3,16h1M6,16h1M10,16h1M11,16h1M12,16h1M14,16h1M15,16h1M17,16h1M20,16h1M21,16h1M23,16h1M25,16h1M29,16h1M30,16h1M31,16h1M32,16h1M33,16h1M34,16h1M0,17h1M1,17h1M2,17h1M4,17h1M7,17h1M8,17h1M9,17h1M10,17h1M11,17h1M13,17h1M15,17h1M18,17h1M22,17h1M24,17h1M26,17h1M28,17h1M29,17h1M33,17h1M34,17h1M3,18h1M5,18h1M6,18h1M8,18h1M9,18h1M10,18h1M12,18h1M14,18h1M15,18h1M17,18h1M18,18h1M20,18h1M21,18h1M24,18h1M25,18h1M27,18h1M29,18h1M30,18h1M31,18h1M33,18h1M34,18h1M35,18h1M36,18h1M2,19h1M3,19h1M5,19h1M7,19h1M12,19h1M14,19h1M15,19h1M17,19h1M22,19h1M26,19h1M28,19h1M30,19h1M33,19h1M0,20h1M3,20h1M4,20h1M5,20h1M6,20h1M8,20h1M11,20h1M12,20h1M13,20h1M16,20h1M17,20h1M18,20h1M19,20h1M20,20h1M21,20h1M25,20h1M26,20h1M27,20h1M28,20h1M29,20h1M30,20h1M31,20h1M32,20h1M34,20h1M0,21h1M1,21h1M3,21h1M5,21h1M7,21h1M8,21h1M11,21h1M14,21h1M15,21h1M17,21h1M21,21h1M26,21h1M29,21h1M31,21h1M33,21h1M34,21h1M0,22h1M2,22h1M6,22h1M8,22h1M12,22h1M17,22h1M18,22h1M19,22h1M23,22h1M25,22h1M27,22h1M31,22h1M33,22h1M35,22h1M36,22h1M1,23h1M2,23h1M3,23h1M5,23h1M7,23h1M9,23h1M10,23h1M11,23h1M14,23h1M15,23h1M18,23h1M20,23h1M21,23h1M23,23h1M33,23h1M35,23h1M1,24h1M2,24h1M3,24h1M6,24h1M10,24h1M11,24h1M12,24h1M16,24h1M18,24h1M20,24h1M21,24h1M27,24h1M28,24h1M29,24h1M30,24h1M32,24h1M34,24h1M36,24h1M0,25h1M1,25h1M3,25h1M5,25h1M8,25h1M9,25h1M10,25h1M12,25h1M15,25h1M19,25h1M20,25h1M24,25h1M25,25h1M29,25h1M31,25h1M33,25h1M34,25h1M35,25h1M0,26h1M2,26h1M3,26h1M4,26h1M5,26h1M6,26h1M7,26h1M10,26h1M12,26h1M14,26h1M15,26h1M16,26h1M17,26h1M18,26h1M19,26h1M25,26h1M27,26h1M31,26h1M32,26h1M33,26h1M35,26h1M36,26h1M0,27h1M3,27h1M5,27h1M8,27h1M15,27h1M16,27h1M17,27h1M18,27h1M21,27h1M22,27h1M24,27h1M27,27h1M30,27h1M31,27h1M36,27h1M0,28h1M2,28h1M3,28h1M6,28h1M7,28h1M9,28h1M10,28h1M12,28h1M13,28h1M15,28h1M21,28h1M22,28h1M24,28h1M25,28h1M26,28h1M28,28h1M29,28h1M30,28h1M31,28h1M32,28h1M33,28h1M34,28h1M35,28h1M36,28h1M8,29h1M13,29h1M14,29h1M15,29h1M16,29h1M17,29h1M18,29h1M20,29h1M22,29h1M23,29h1M28,29h1M32,29h1M33,29h1M35,29h1M0,30h1M1,30h1M2,30h1M3,30h1M4,30h1M5,30h1M6,30h1M9,30h1M10,30h1M11,30h1M12,30h1M13,30h1M15,30h1M18,30h1M20,30h1M22,30h1M24,30h1M26,30h1M28,30h1M30,30h1M32,30h1M34,30h1M36,30h1M0,31h1M6,31h1M9,31h1M10,31h1M11,31h1M13,31h1M14,31h1M20,31h1M22,31h1M24,31h1M28,31h1M32,31h1M33,31h1M35,31h1M0,32h1M2,32h1M3,32h1M4,32h1M6,32h1M8,32h1M10,32h1M11,32h1M14,32h1M15,32h1M16,32h1M17,32h1M24,32h1M25,32h1M26,32h1M27,32h1M28,32h1M29,32h1M30,32h1M31,32h1M32,32h1M34,32h1M36,32h1M0,33h1M2,33h1M3,33h1M4,33h1M6,33h1M8,33h1M10,33h1M11,33h1M13,33h1M18,33h1M19,33h1M20,33h1M27,33h1M29,33h1M30,33h1M31,33h1M32,33h1M33,33h1M34,33h1M0,34h1M2,34h1M3,34h1M4,34h1M6,34h1M8,34h1M9,34h1M17,34h1M19,34h1M22,34h1M23,34h1M24,34h1M25,34h1M27,34h1M29,34h1M33,34h1M36,34h1M0,35h1M6,35h1M9,35h1M13,35h1M14,35h1M15,35h1M16,35h1M17,35h1M18,35h1M21,35h1M22,35h1M23,35h1M28,35h1M30,35h1M31,35h1M32,35h1M36,35h1M0,36h1M1,36h1M2,36h1M3,36h1M4,36h1M5,36h1M6,36h1M9,36h1M11,36h1M13,36h1M14,36h1M16,36h1M19,36h1M20,36h1M23,36h1M25,36h1M26,36h1M33,36h1M34,36h1M35,36h1M36,36h1"/>
	</g>
</svg>
