<!-- Created with qrencode 4.1.1 (https://fukuchi.org/works/qrencode/index.html) -->
<svg width="6.46cm" height="6.46cm" viewBox="0 0 61 61" preserveAspectRatio="none" version="1.1" xmlns="http://www.w3.org/2000/svg">
	<g id="QRcode">
		<rect x="0" y="0" width="61" height="61" fill="#ffffff"/>
		<path style="stroke:#000000" transform="translate(4,4.5)" d="M0,0h7M8,0h1M12,0h1M15,0h1M17,0h2M20,0h1M23,0h1M25,0h1M27,0h1M30,0h1M35,0h3M40,0h3M46,0h7M0,1h1M6,1h1M8,1h2M14,1h2M17,1h1M19,1h1M22,1h5M28,1h1M31,1h1M33,1h1M38,1h1M41,1h3M46,1h1M52,1h1M0,2h1M2,2h3M6,2h1M8,2h2M11,2h1M23,2h1M26,2h2M30,2h5M36,2h1M38,2h1M40,2h1M43,2h1M46,2h1M48,2h3M52,2h1M0,3h1M2,3h3M6,3h1M12,3h1M14,3h2M17,3h1M19,3h1M22,3h1M26,3h1M30,3h1M32,3h2M35,3h1M37,3h1M41,3h2M44,3h1M46,3h1M48,3h3M52,3h1M0,4h1M2,4h3M6,4h1M9,4h1M13,4h3M22,4h1M24,4h7M37,4h1M41,4h2M46,4h1M48,4h3M52,4h1M0,5h1M6,5h1M8,5h1M10,5h2M15,5h3M20,5h1M23,5h2M28,5h1M31,5h1M34,5h2M38,5h1M40,5h1M42,5h1M46,5h1M52,5h1M0,6h7M8,6h1M10,6h1M12,6h1M14,6h1M16,6h1M18,6h1M20,6h1M22,6h1M24,6h1M26,6h1M28,6h1M30,6h1M32,6h1M34,6h1M36,6h1M38,6h1M40,6h1M42,6h1M44,6h1M46,6h7M8,7h1M10,7h2M16,7h1M20,7h1M22,7h3M28,7h4M34,7h1M39,7h1M42,7h2M2,8h3M6,8h1M8,8h5M14,8h2M17,8h1M20,8h1M23,8h7M31,8h1M33,8h1M35,8h4M41,8h1M43,8h5M50,8h3M0,9h1M7,9h1M9,9h1M11,9h1M14,9h2M17,9h1M19,9h5M25,9h3M29,9h3M33,9h1M35,9h3M42,9h2M47,9h1M49,9h1M52,9h1M0,10h1M6,10h1M15,10h2M19,10h2M22,10h1M25,10h2M28,10h1M33,10h1M35,10h2M38,10h1M41,10h1M47,10h3M51,10h1M0,11h1M4,11h1M8,11h1M13,11h1M16,11h2M20,11h1M23,11h4M29,11h3M33,11h3M37,11h7M45,11h2M48,11h2M51,11h1M1,12h2M6,12h6M14,12h1M16,12h1M20,12h2M26,12h1M28,12h1M33,12h1M35,12h2M45,12h1M47,12h6M0,13h2M4,13h2M7,13h1M9,13h1M11,13h2M14,13h3M21,13h5M27,13h1M31,13h1M35,13h1M37,13h1M39,13h5M47,13h1M49,13h3M1,14h3M5,14h3M12,14h1M14,14h4M21,14h1M26,14h1M29,14h2M34,14h1M38,14h1M40,14h2M44,14h3M48,14h1M50,14h1M1,15h1M3,15h1M5,15h1M9,15h2M12,15h1M14,15h1M17,15h1M21,15h4M26,15h2M29,15h3M34,15h1M37,15h4M42,15h1M45,15h2M49,15h1M51,15h2M0,16h4M6,16h2M9,16h1M11,16h2M15,16h3M21,16h2M24,16h3M31,16h1M33,16h1M35,16h4M44,16h1M47,16h3M51,16h2M4,17h2M7,17h2M10,17h1M15,17h2M19,17h2M23,17h2M26,17h1M30,17h1M33,17h5M41,17h3M48,17h1M52,17h1M3,18h2M6,18h2M9,18h4M16,18h1M20,18h3M26,18h1M28,18h2M34,18h4M39,18h2M43,18h2M46,18h6M0,19h1M2,19h1M5,19h1M7,19h2M12,19h2M15,19h4M21,19h1M23,19h2M26,19h1M28,19h1M30,19h1M32,19h2M35,19h2M38,19h2M41,19h3M45,19h1M48,19h1M52,19h1M3,20h1M6,20h5M13,20h1M15,20h2M18,20h4M24,20h1M27,20h1M33,20h1M36,20h2M41,20h1M44,20h1M46,20h5M52,20h1M0,21h2M4,21h1M7,21h10M23,21h7M31,21h6M42,21h2M47,21h2M51,21h1M1,22h6M10,22h1M14,22h2M18,22h4M23,22h1M28,22h1M32,22h1M34,22h1M36,22h1M39,22h3M43,22h2M46,22h1M48,22h3M5,23h1M9,23h1M14,23h2M17,23h6M24,23h1M28,23h1M30,23h1M34,23h1M36,23h2M42,23h1M44,23h2M52,23h1M0,24h3M4,24h8M13,24h2M18,24h3M23,24h10M35,24h2M41,24h1M44,24h9M0,25h5M8,25h1M11,25h1M14,25h3M19,25h1M21,25h1M24,25h1M28,25h1M30,25h1M33,25h1M36,25h2M39,25h1M42,25h1M44,25h1M48,25h1M50,25h1M1,26h2M4,26h1M6,26h1M8,26h5M14,26h1M16,26h1M18,26h3M22,26h3M26,26h1M28,26h1M31,26h1M34,26h1M41,26h1M43,26h2M46,26h1M48,26h1M1,27h2M4,27h1M8,27h1M12,27h2M15,27h2M18,27h1M22,27h1M24,27h1M28,27h1M33,27h2M37,27h1M42,27h1M44,27h1M48,27h2M51,27h2M1,28h9M11,28h2M18,28h1M21,28h2M24,28h5M31,28h3M35,28h4M41,28h8M50,28h3M2,29h2M7,29h1M10,29h4M17,29h1M19,29h1M22,29h1M24,29h1M26,29h1M29,29h1M31,29h1M34,29h2M37,29h1M42,29h1M45,29h4M50,29h1M52,29h1M0,30h1M2,30h5M12,30h1M14,30h2M20,30h1M22,30h1M24,30h1M26,30h8M35,30h2M40,30h2M47,30h2M1,31h1M3,31h1M5,31h1M7,31h2M10,31h3M15,31h6M22,31h3M28,31h2M31,31h1M33,31h1M39,31h8M0,32h2M5,32h2M9,32h3M13,32h6M21,32h3M25,32h1M28,32h3M32,32h1M34,32h4M41,32h2M45,32h1M48,32h4M1,33h1M8,33h1M12,33h4M18,33h2M21,33h1M24,33h3M28,33h1M31,33h1M33,33h1M35,33h1M39,33h1M42,33h2M46,33h3M51,33h1M0,34h2M3,34h2M6,34h5M14,34h1M18,34h4M27,34h1M29,34h3M35,34h5M41,34h1M50,34h1M1,35h3M8,35h1M12,35h1M15,35h1M17,35h1M19,35h2M26,35h1M29,35h3M33,35h3M37,35h1M39,35h6M46,35h1M48,35h1M51,35h1M0,36h2M4,36h4M9,36h2M15,36h3M20,36h4M27,36h1M30,36h2M35,36h2M46,36h2M49,36h3M0,37h1M3,37h2M7,37h1M9,37h1M11,37h7M24,37h5M30,37h2M33,37h2M37,37h1M42,37h3M46,37h4M52,37h1M1,38h6M9,38h4M14,38h1M17,38h2M21,38h1M24,38h4M29,38h4M34,38h2M39,38h3M45,38h1M50,38h1M0,39h1M2,39h1M4,39h2M7,39h1M13,39h3M18,39h2M26,39h1M29,39h1M31,39h1M33,39h1M35,39h2M39,39h4M44,39h1M46,39h4M51,39h1M2,40h1M5,40h2M9,40h3M13,40h12M27,40h1M31,40h1M33,40h1M35,40h2M38,40h1M41,40h1M46,40h1M48,40h1M50,40h3M3,41h2M8,41h2M13,41h2M17,41h2M20,41h2M24,41h1M26,41h2M29,41h1M32,41h1M35,41h3M41,41h2M45,41h4M0,42h2M3,42h5M11,42h2M14,42h5M22,42h1M24,42h3M28,42h1M31,42h4M36,42h2M39,42h1M41,42h1M43,42h2M48,42h3M1,43h2M7,43h10M18,43h1M22,43h1M24,43h3M28,43h1M33,43h1M38,43h2M41,43h2M44,43h3M49,43h1M51,43h2M3,44h1M6,44h5M13,44h2M17,44h1M20,44h3M24,44h8M35,44h3M44,44h6M51,44h1M8,45h1M10,45h1M17,45h1M19,45h2M22,45h1M24,45h1M28,45h1M32,45h6M39,45h1M41,45h4M48,45h1M51,45h1M0,46h7M9,46h4M15,46h2M18,46h1M24,46h1M26,46h1M28,46h5M35,46h1M38,46h1M42,46h3M46,46h1M48,46h1M0,47h1M6,47h1M11,47h3M15,47h2M18,47h3M24,47h1M28,47h1M30,47h1M32,47h2M36,47h1M42,47h3M48,47h2M51,47h2M0,48h1M2,48h3M6,48h1M8,48h3M13,48h4M18,48h4M24,48h6M33,48h1M35,48h3M41,48h2M44,48h8M0,49h1M2,49h3M6,49h1M8,49h2M11,49h2M15,49h5M21,49h2M24,49h2M28,49h1M32,49h6M39,49h1M41,49h5M47,49h1M0,50h1M2,50h3M6,50h1M8,50h1M11,50h1M13,50h2M16,50h2M20,50h3M24,50h1M27,50h1M29,50h4M36,50h5M42,50h2M46,50h4M0,51h1M6,51h1M9,51h1M13,51h1M15,51h1M18,51h1M20,51h8M29,51h2M34,51h1M36,51h5M42,51h1M47,51h1M51,51h1M0,52h7M10,52h1M12,52h1M14,52h6M21,52h2M25,52h1M27,52h1M31,52h5M38,52h1M41,52h1M43,52h1M45,52h1M47,52h4"/>
	</g>
</svg>
